# xmcd
# Track frame offsets:
# 150
# 17146
# 33398
# 46866
# 61269
# 74325
# 87514
# 99414
# 120928
# 134698
# 149291
# 162801
# 175605
# 191379
# 206956
# 228582
# 244295
# 258085
# 278136
# 291637
#
# Disc length: 4112 seconds
# Revision: 0
# Processed by: cddbd v1.5.2PL0 Copyright (c) Steve Scherf et al.
# Submitted via: VisiTrax 2.11.3.279 - For more info visit www.synapsa.com
#
DISCID=26100e14
DTITLE=Various (1960's-1970's) Pop and Rock and Prog Rock and Disco and Funk and AO
DTITLE=R and Country and Country Pop Artists - The 70's US Playlist: 60 ClassicU
DTITLE=S Tracks From The Seventies: *ReMastered Tracks
DYEAR=1970
DGENRE=Pop
TTITLE0=Jacksons The - Shake Your Boy (Down To The Ground)*
TTITLE1=Earth Wind and Fire - September*
TTITLE2=O'Jays The - Love Train*
TTITLE3=Wild Cherry - Play That Funky Music*
TTITLE4=Freda Payne - Band Of Gold*
TTITLE5=Chairman Of The Board - Working On A Building Of Love*
TTITLE6=Three Degrees The - When Will I See You Again*
TTITLE7=Billy Paul - Me And Mrs Jones*
TTITLE8=Drifters The - Down On The Beach Tonight*
TTITLE9=Andy Williams - Can't Help Falling In Love*
TTITLE10=Sly and The Family Stone - Dance To The Music*
TTITLE11=New York City - I'm Doing Fine Now*
TTITLE12=Gary's Gang - Keep On Dancin'*
TTITLE13=Odyssey - Native New Yorker*
TTITLE14=Heat Wave - Always And Forever*
TTITLE15=Pointer Sisters The - Fire*
TTITLE16=Johnny Johnson and The Bandwagon - (Blame It) On The Pony Express*
TTITLE17=Manhattans The - Kiss And Say Goodbye*
TTITLE18=James and Bobby Purify - I'm Your Puppet*
TTITLE19=Holland-Dozier feat. Lamont Dozier - Why Can't We Be Lovers*
EXTD=Compilation and ReMastering: Crimson/Sony: 2017
EXTT0=
EXTT1=
EXTT2=
EXTT3=
EXTT4=
EXTT5=
EXTT6=
EXTT7=
EXTT8=
EXTT9=
EXTT10=
EXTT11=
EXTT12=
EXTT13=
EXTT14=
EXTT15=
EXTT16=
EXTT17=
EXTT18=
EXTT19=
PLAYORDER=
